# xmcd CD database file
#
# Track frame offsets:
#	150
#	14108
#	29125
#	42678
#	56798
#	77340
#	90848
#	100917
#	114222
#	130281
#	144272
#	160495
#	175085
#	190706
#	204703
#	217305
#	232690
#
# Disc length: 3312 seconds
#
# Revision: 0
# Processed by: cddbd v1.4PL0 Copyright (c) Steve Scherf et al.
# Submitted via: Feurio! 1.66 - http://www.feurio.com
#
DISCID=eb0cee11
DTITLE=Frankie Miller - Frankie Miller - The Very Best Of
DYEAR=1900
DGENRE=
TTITLE0=Darlin'
TTITLE1=When I'm Away From You
TTITLE2=Be Good To Yourself
TTITLE3=I Can't Change It
TTITLE4=Highlife/Brickyard Blues
TTITLE5=A Fool In Love
TTITLE6=Have You Seen Me Lately Joan?
TTITLE7=Love Letters
TTITLE8=Caledonia
TTITLE9=Stubborn Kind Of Fellow
TTITLE10=The Devil Gun
TTITLE11=Hard On The Levée
TTITLE12=Tears
TTITLE13=I'm Ready
TTITLE14=Shoo-Rah Shoo-Rah
TTITLE15=Double Heart Trouble
TTITLE16=So Young, So Young
EXTD=
EXTT0=
EXTT1=
EXTT2=
EXTT3=
EXTT4=
EXTT5=
EXTT6=
EXTT7=
EXTT8=
EXTT9=
EXTT10=
EXTT11=
EXTT12=
EXTT13=
EXTT14=
EXTT15=
EXTT16=
PLAYORDER=
